<?xml version="1.0" encoding="UTF-8"?>
<svg xmlns="http://www.w3.org/2000/svg" style="stroke-dasharray:none; shape-rendering:auto; font-family:'Arial'; text-rendering:auto; fill-opacity:1; color-interpolation:auto; color-rendering:auto; font-size:12; fill:black; stroke:black; image-rendering:auto; stroke-miterlimit:10; stroke-linecap:square; stroke-linejoin:miter; font-style:normal; stroke-width:1; stroke-dashoffset:0; font-weight:normal; stroke-opacity:1;" contentScriptType="text/ecmascript" preserveAspectRatio="xMidYMid meet" zoomAndPan="magnify" version="1.0" contentStyleType="text/css" xml:xlink="http://www.w3.org/1999/xlink" width="1211" height="479"><rect x="0" y="0" width="1211" height="454" ry="0" rx="0" style="stroke:#000000; fill:#FFFFFF" /><rect x="30" y="151" width="1181" height="151" ry="0" rx="0" style="stroke:#000000; fill:#C0C0C0" /><g componentSequence="4"><text x="-226" y="37" transform="rotate(270)" text-anchor="middle" style="font-weight:bold;font-size:10px;stroke:none; fill:#434343"><tspan dy="14" x="-226">Solicitante</tspan></text></g><rect x="30" y="302" width="1181" height="152" ry="0" rx="0" style="stroke:#000000; fill:#82B0B7" /><g componentSequence="3"><text x="-378" y="37" transform="rotate(270)" text-anchor="middle" style="font-weight:bold;font-size:10px;stroke:none; fill:#434343"><tspan dy="14" x="-378">Fiscal</tspan></text></g><rect x="30" y="0" width="1181" height="151" ry="0" rx="0" style="stroke:#000000; fill:#408080" /><g componentSequence="2"><text x="-75" y="37" transform="rotate(270)" text-anchor="middle" style="font-weight:bold;font-size:10px;stroke:none; fill:#434343"><tspan dy="14" x="-75">Financeiro</tspan></text></g><g componentSequence="1"><text x="-227" y="7" transform="rotate(270)" text-anchor="middle" style="font-weight:bold;font-size:10px;stroke:none; fill:#434343"><tspan dy="14" x="-227">Pagamento com PO</tspan></text></g><g sequence="4"><ellipse cx="77" cy="147" rx="17" ry="17" stroke-width="1" style="fill:url(#linearGradient66FF6696FF96B6FFB6_1129073265);" stroke="336633" /></g><g sequence="5"><rect x="860" y="187" width="106" height="84" ry="5" rx="5" style="fill:url(#linearGradientF8FBFEEDF5FCDEEDFAD4E7F8E2E5E9_1300999272);" stroke="191970" /></g><g componentSequence="5"><text x="913" y="202" text-anchor="middle" style="font-weight:bold;font-size:10px;stroke:none; fill:#333399"><tspan dy="14" x="913">Processamento</tspan><tspan dy="14" x="913">Central de Notas</tspan></text></g><g sequence="9"><ellipse cx="1167" cy="228" rx="17" ry="17" stroke-width="3" style="fill:url(#linearGradientFF6666FF9696FFB6B6_1236541697);" stroke="993333" /></g><g sequence="14"><polygon points=" 340 90 370 60 400 90 370 120 340 90" style="fill:url(#linearGradientFAFBFCFFFFCC_213296723);" stroke="000000" /></g><g componentSequence="14"><text x="370" y="123" text-anchor="middle" style="font-weight:bold;font-size:10px;stroke:none; fill:#333399"><tspan dy="14" x="370">Serviço?</tspan></text></g><g sequence="16"><rect x="430" y="370" width="106" height="84" ry="5" rx="5" style="fill:url(#linearGradientF8FBFEEDF5FCDEEDFAD4E7F8E2E5E9_755530358);" stroke="191970" /></g><g componentSequence="16"><text x="483" y="385" text-anchor="middle" style="font-weight:bold;font-size:10px;stroke:none; fill:#333399"><tspan dy="14" x="483">Processamento</tspan><tspan dy="14" x="483">Fiscal - Serviço</tspan></text></g><g sequence="19"><rect x="740" y="7" width="106" height="70" ry="5" rx="5" style="fill:url(#linearGradientF8FBFEEDF5FCDEEDFAD4E7F8E2E5E9_1039166291);" stroke="191970" /></g><g componentSequence="19"><text x="793" y="22" text-anchor="middle" style="font-weight:bold;font-size:10px;stroke:none; fill:#333399"><tspan dy="14" x="793">Verificar</tspan><tspan dy="14" x="793">Negativa</tspan></text></g><g sequence="22"><polygon points=" 1030 215 1060 185 1090 215 1060 245 1030 215" style="fill:url(#linearGradientFAFBFCFFFFCC_1436871109);" stroke="000000" /></g><g componentSequence="22"><text x="1060" y="248" text-anchor="middle" style="font-weight:bold;font-size:10px;stroke:none; fill:#333399"><tspan dy="14" x="1060">S/N</tspan></text></g><g sequence="27"><polygon points=" 620 400 650 370 680 400 650 430 620 400" style="fill:url(#linearGradientFAFBFCFFFFCC_1821989148);" stroke="000000" /></g><g componentSequence="27"><text x="650" y="433" text-anchor="middle" style="font-weight:bold;font-size:10px;stroke:none; fill:#333399"><tspan dy="14" x="650">S/N</tspan></text></g><g sequence="31"><rect x="430" y="290" width="106" height="84" ry="5" rx="5" style="fill:url(#linearGradientF8FBFEEDF5FCDEEDFAD4E7F8E2E5E9_44848435);" stroke="191970" /></g><g componentSequence="31"><text x="483" y="305" text-anchor="middle" style="font-weight:bold;font-size:10px;stroke:none; fill:#333399"><tspan dy="14" x="483">Processamento</tspan><tspan dy="14" x="483">Fiscal - Produto</tspan></text></g><g sequence="33"><polygon points=" 620 322 650 292 680 322 650 352 620 322" style="fill:url(#linearGradientFAFBFCFFFFCC_1010306246);" stroke="000000" /></g><g componentSequence="33"><text x="650" y="355" text-anchor="middle" style="font-weight:bold;font-size:10px;stroke:none; fill:#333399"><tspan dy="14" x="650">S/N</tspan></text></g><g sequence="37"><polygon points=" 180 210 210 180 240 210 210 240 180 210" style="fill:url(#linearGradientFAFBFCFFFFCC_1319116869);" stroke="000000" /></g><g componentSequence="37"><text x="210" y="243" text-anchor="middle" style="font-weight:bold;font-size:10px;stroke:none; fill:#333399"><tspan dy="14" x="210">Reverso</tspan></text></g><g sequence="39"><rect x="210" y="20" width="106" height="70" ry="5" rx="5" style="fill:url(#linearGradientF8FBFEEDF5FCDEEDFAD4E7F8E2E5E9_1758970164);" stroke="191970" /></g><g componentSequence="39"><text x="263" y="35" text-anchor="middle" style="font-weight:bold;font-size:10px;stroke:none; fill:#333399"><tspan dy="14" x="263">Preencher</tspan><tspan dy="14" x="263">Dados</tspan></text></g><g sequence="41"><polygon points=" 290 258 320 228 350 258 320 288 290 258" style="fill:url(#linearGradientFAFBFCFFFFCC_145884368);" stroke="000000" /></g><g componentSequence="41"><text x="320" y="291" text-anchor="middle" style="font-weight:bold;font-size:10px;stroke:none; fill:#333399"><tspan dy="14" x="320">Aceita</tspan></text></g><g sequence="50"><rect x="80" y="20" width="106" height="70" ry="5" rx="5" style="fill:url(#linearGradientF8FBFEEDF5FCDEEDFAD4E7F8E2E5E9_1947232060);" stroke="191970" /></g><g componentSequence="50"><text x="133" y="35" text-anchor="middle" style="font-weight:bold;font-size:10px;stroke:none; fill:#333399"><tspan dy="14" x="133">Ajustar</tspan><tspan dy="14" x="133">Informações</tspan></text></g><rect x="940" y="340" width="105" height="139" ry="5" rx="5" style="stroke:none; fill:#FFFFE0" /><g componentSequence="11"><text x="950" y="363" text-anchor="left" style="font-weight:bold;font-size:10px;stroke:none; fill:#000000"><tspan dy="14" x="950">Dispara E-mail</tspan><tspan dy="14" x="950">para o</tspan><tspan dy="14" x="950">Solicitante,</tspan><tspan dy="14" x="950">informando</tspan><tspan dy="14" x="950">que a</tspan><tspan dy="14" x="950">solicitação</tspan><tspan dy="14" x="950">está em</tspan><tspan dy="14" x="950">andamento</tspan></text></g><path style="fill:none; stroke-width:1; stroke:#000000;" d="M960.0 340.0 L940.0 340.0 L940.0 479.0 L960.0 479.0" /><g componentSequence="17"><text x="380" y="309" style="font-size:10px;font-weight:none;stroke:none; fill:#333399" text-anchor="left"><tspan dy="14" x="380">S</tspan></text></g><g componentSequence="21"><text x="573" y="42" style="font-size:10px;font-weight:none;stroke:none; fill:#333399" text-anchor="left" /></g><g componentSequence="23"><text x="1008" y="229" style="font-size:10px;font-weight:none;stroke:none; fill:#333399" text-anchor="left" /></g><g componentSequence="24"><text x="1130" y="228" style="font-size:10px;font-weight:none;stroke:none; fill:#333399" text-anchor="left" /></g><g componentSequence="26"><text x="1034" y="42" style="font-size:10px;font-weight:none;stroke:none; fill:#333399" text-anchor="left" /></g><g componentSequence="28"><text x="588" y="413" style="font-size:10px;font-weight:none;stroke:none; fill:#333399" text-anchor="left" /></g><g componentSequence="29"><text x="802" y="301" style="font-size:10px;font-weight:none;stroke:none; fill:#333399" text-anchor="left" /></g><g componentSequence="30"><text x="877" y="413" style="font-size:10px;font-weight:none;stroke:none; fill:#333399" text-anchor="left" /></g><g componentSequence="32"><text x="380" y="269" style="font-size:10px;font-weight:none;stroke:none; fill:#333399" text-anchor="left"><tspan dy="14" x="380">N</tspan></text></g><g componentSequence="34"><text x="588" y="334" style="font-size:10px;font-weight:none;stroke:none; fill:#333399" text-anchor="left" /></g><g componentSequence="35"><text x="802" y="262" style="font-size:10px;font-weight:none;stroke:none; fill:#333399" text-anchor="left" /></g><g componentSequence="36"><text x="734" y="228" style="font-size:10px;font-weight:none;stroke:none; fill:#333399" text-anchor="left" /></g><g componentSequence="38"><text x="300" y="164" style="font-size:10px;font-weight:none;stroke:none; fill:#333399" text-anchor="left"><tspan dy="14" x="300">N</tspan></text></g><g componentSequence="40"><text x="248" y="135" style="font-size:10px;font-weight:none;stroke:none; fill:#333399" text-anchor="left"><tspan dy="14" x="248">s</tspan></text></g><g componentSequence="42"><text x="300" y="159" style="font-size:10px;font-weight:none;stroke:none; fill:#333399" text-anchor="left" /></g><g componentSequence="43"><text x="355" y="188" style="font-size:10px;font-weight:none;stroke:none; fill:#333399" text-anchor="left"><tspan dy="14" x="355">s</tspan></text></g><g componentSequence="48"><text x="147" y="182" style="font-size:10px;font-weight:none;stroke:none; fill:#333399" text-anchor="left" /></g><g componentSequence="51"><text x="142" y="260" style="font-size:10px;font-weight:none;stroke:none; fill:#333399" text-anchor="left"><tspan dy="14" x="142">N</tspan></text></g><g componentSequence="52"><text x="179" y="135" style="font-size:10px;font-weight:none;stroke:none; fill:#333399" text-anchor="left" /></g><g componentSequence="53"><text x="780" y="103" style="font-size:10px;font-weight:none;stroke:none; fill:#333399" text-anchor="left" /></g><g componentSequence="12"><text x="956" y="305" style="font-size:10px;font-weight:none;stroke:none; fill:#333399" text-anchor="left" /></g><path style="fill:none; stroke:#000000;stroke-width:1" d="M92.0 156.0 L179.0 206.0" /><polygon style="fill:#000000; stroke:#000000;" points=" 173 197 179 206 168 205 172 202" /><path style="fill:none; stroke:#000000;stroke-width:1" d="M966.0 229.0 L1029.0 229.0" /><polygon style="fill:#000000; stroke:#000000;" points=" 1019 224 1029 229 1019 234 1021 229" /><path style="fill:none; stroke:#000000;stroke-width:1" d="M680.0 413.0 L912.0 413.0 L912.0 271.0" /><polygon style="fill:#000000; stroke:#000000;" points=" 907 281 912 271 917 281 912 279" /><path style="fill:none; stroke:#000000;stroke-width:1" d="M651.0 291.0 L652.0 228.0 L859.0 228.0" /><polygon style="fill:#000000; stroke:#000000;" points=" 849 223 859 228 849 233 851 228" /><path style="fill:none; stroke:#000000;stroke-dasharray:2" d="M961.0 339.0 L931.0 271.0" /><path style="fill:none; stroke:#000000;stroke-width:1" d="M1090.0 228.0 L1150.0 228.0" /><polygon style="fill:#000000; stroke:#000000;" points=" 1140 223 1150 228 1140 233 1142 228" /><path style="fill:none; stroke:#000000;stroke-width:1" d="M370.0 148.0 L370.0 411.0 L429.0 411.0" /><polygon style="fill:#000000; stroke:#000000;" points=" 419 406 429 411 419 416 421 411" /><path style="fill:none; stroke:#000000;stroke-width:1" d="M370.0 148.0 L370.0 331.0 L429.0 331.0" /><polygon style="fill:#000000; stroke:#000000;" points=" 419 326 429 331 419 336 421 331" /><path style="fill:none; stroke:#000000;stroke-width:1" d="M739.0 42.0 L452.0 42.0 L400.0 81.0" /><polygon style="fill:#000000; stroke:#000000;" points=" 411 79 400 81 405 71 406 76" /><path style="fill:none; stroke:#000000;stroke-width:1" d="M240.0 201.0 L339.0 127.0" /><polygon style="fill:#000000; stroke:#000000;" points=" 328 129 339 127 334 137 333 132" /><path style="fill:none; stroke:#000000;stroke-width:1" d="M333.0 227.0 L356.0 148.0" /><polygon style="fill:#000000; stroke:#000000;" points=" 348 156 356 148 358 159 354 156" /><path style="fill:none; stroke:#000000;stroke-width:1" d="M1059.0 184.0 L1059.0 103.0 L400.0 103.0" /><polygon style="fill:#000000; stroke:#000000;" points=" 410 108 400 103 410 98 408 103" /><path style="fill:none; stroke:#000000;stroke-width:1" d="M536.0 412.0 L619.0 413.0" /><polygon style="fill:#000000; stroke:#000000;" points=" 609 408 619 413 609 418 611 413" /><path style="fill:none; stroke:#000000;stroke-width:1" d="M1060.0 184.0 L1060.0 42.0 L846.0 42.0" /><polygon style="fill:#000000; stroke:#000000;" points=" 856 47 846 42 856 37 854 42" /><path style="fill:none; stroke:#000000;stroke-width:1" d="M680.0 413.0 L792.0 413.0 L792.0 77.0" /><polygon style="fill:#000000; stroke:#000000;" points=" 787 87 792 77 797 87 792 85" /><path style="fill:none; stroke:#000000;stroke-width:1" d="M680.0 335.0 L792.0 335.0 L792.0 77.0" /><polygon style="fill:#000000; stroke:#000000;" points=" 787 87 792 77 797 87 792 85" /><path style="fill:none; stroke:#000000;stroke-width:1" d="M536.0 333.0 L619.0 335.0" /><polygon style="fill:#000000; stroke:#000000;" points=" 609 330 619 335 609 340 611 335" /><path style="fill:none; stroke:#000000;stroke-width:1" d="M224.0 179.0 L252.0 90.0" /><polygon style="fill:#000000; stroke:#000000;" points=" 244 98 252 90 254 101 250 98" /><path style="fill:none; stroke:#000000;stroke-width:1" d="M149.0 90.0 L189.0 179.0" /><polygon style="fill:#000000; stroke:#000000;" points=" 189 168 189 179 180 172 186 172" /><path style="fill:none; stroke:#000000;stroke-width:1" d="M272.0 90.0 L308.0 227.0" /><polygon style="fill:#000000; stroke:#000000;" points=" 310 216 308 227 301 219 306 219" /><path style="fill:none; stroke:#000000;stroke-width:1" d="M289.0 272.0 L132.0 272.0 L132.0 90.0" /><polygon style="fill:#000000; stroke:#000000;" points=" 127 100 132 90 137 100 132 98" /><defs><linearGradient xmlns:xlink="http://www.w3.org/1999/xlink" xlink:href="#linearGradient66FF6696FF96B6FFB6" id="linearGradient66FF6696FF96B6FFB6_1129073265" x1="0" y1="130.0" x2="0" y2="165.0" gradientUnits="userSpaceOnUse" xlink:type="simple" xlink:actuate="onLoad" xlink:show="other" /><linearGradient id="linearGradient66FF6696FF96B6FFB6"><stop style="stop-color:#66FF66;stop-opacity:1;" offset="0.0" id="stop66FF66" /><stop style="stop-color:#96FF96;stop-opacity:1;" offset="0.5" id="stop96FF96" /><stop style="stop-color:#B6FFB6;stop-opacity:1;" offset="1.0" id="stopB6FFB6" /></linearGradient><linearGradient xmlns:xlink="http://www.w3.org/1999/xlink" xlink:href="#linearGradientF8FBFEEDF5FCDEEDFAD4E7F8E2E5E9" id="linearGradientF8FBFEEDF5FCDEEDFAD4E7F8E2E5E9_1300999272" x1="0" y1="187.0" x2="0" y2="293.0" gradientUnits="userSpaceOnUse" xlink:type="simple" xlink:actuate="onLoad" xlink:show="other" /><linearGradient id="linearGradientF8FBFEEDF5FCDEEDFAD4E7F8E2E5E9"><stop style="stop-color:#F8FBFE;stop-opacity:1;" offset="0.0" id="stopF8FBFE" /><stop style="stop-color:#EDF5FC;stop-opacity:1;" offset="0.25" id="stopEDF5FC" /><stop style="stop-color:#DEEDFA;stop-opacity:1;" offset="0.5" id="stopDEEDFA" /><stop style="stop-color:#D4E7F8;stop-opacity:1;" offset="0.75" id="stopD4E7F8" /><stop style="stop-color:#E2E5E9;stop-opacity:1;" offset="1.0" id="stopE2E5E9" /></linearGradient><linearGradient xmlns:xlink="http://www.w3.org/1999/xlink" xlink:href="#linearGradientFF6666FF9696FFB6B6" id="linearGradientFF6666FF9696FFB6B6_1236541697" x1="0" y1="211.0" x2="0" y2="246.0" gradientUnits="userSpaceOnUse" xlink:type="simple" xlink:actuate="onLoad" xlink:show="other" /><linearGradient id="linearGradientFF6666FF9696FFB6B6"><stop style="stop-color:#FF6666;stop-opacity:1;" offset="0.0" id="stopFF6666" /><stop style="stop-color:#FF9696;stop-opacity:1;" offset="0.5" id="stopFF9696" /><stop style="stop-color:#FFB6B6;stop-opacity:1;" offset="1.0" id="stopFFB6B6" /></linearGradient><linearGradient xmlns:xlink="http://www.w3.org/1999/xlink" xlink:href="#linearGradientFAFBFCFFFFCC" id="linearGradientFAFBFCFFFFCC_213296723" x1="0" y1="60.0" x2="0" y2="120.0" gradientUnits="userSpaceOnUse" xlink:type="simple" xlink:actuate="onLoad" xlink:show="other" /><linearGradient id="linearGradientFAFBFCFFFFCC"><stop style="stop-color:#FAFBFC;stop-opacity:1;" offset="0.0" id="stopFAFBFC" /><stop style="stop-color:#FFFFCC;stop-opacity:1;" offset="1.0" id="stopFFFFCC" /></linearGradient><linearGradient xmlns:xlink="http://www.w3.org/1999/xlink" xlink:href="#linearGradientF8FBFEEDF5FCDEEDFAD4E7F8E2E5E9" id="linearGradientF8FBFEEDF5FCDEEDFAD4E7F8E2E5E9_755530358" x1="0" y1="370.0" x2="0" y2="476.0" gradientUnits="userSpaceOnUse" xlink:type="simple" xlink:actuate="onLoad" xlink:show="other" /><linearGradient xmlns:xlink="http://www.w3.org/1999/xlink" xlink:href="#linearGradientF8FBFEEDF5FCDEEDFAD4E7F8E2E5E9" id="linearGradientF8FBFEEDF5FCDEEDFAD4E7F8E2E5E9_1039166291" x1="0" y1="7.0" x2="0" y2="113.0" gradientUnits="userSpaceOnUse" xlink:type="simple" xlink:actuate="onLoad" xlink:show="other" /><linearGradient xmlns:xlink="http://www.w3.org/1999/xlink" xlink:href="#linearGradientFAFBFCFFFFCC" id="linearGradientFAFBFCFFFFCC_1436871109" x1="0" y1="185.0" x2="0" y2="245.0" gradientUnits="userSpaceOnUse" xlink:type="simple" xlink:actuate="onLoad" xlink:show="other" /><linearGradient xmlns:xlink="http://www.w3.org/1999/xlink" xlink:href="#linearGradientFAFBFCFFFFCC" id="linearGradientFAFBFCFFFFCC_1821989148" x1="0" y1="370.0" x2="0" y2="430.0" gradientUnits="userSpaceOnUse" xlink:type="simple" xlink:actuate="onLoad" xlink:show="other" /><linearGradient xmlns:xlink="http://www.w3.org/1999/xlink" xlink:href="#linearGradientF8FBFEEDF5FCDEEDFAD4E7F8E2E5E9" id="linearGradientF8FBFEEDF5FCDEEDFAD4E7F8E2E5E9_44848435" x1="0" y1="290.0" x2="0" y2="396.0" gradientUnits="userSpaceOnUse" xlink:type="simple" xlink:actuate="onLoad" xlink:show="other" /><linearGradient xmlns:xlink="http://www.w3.org/1999/xlink" xlink:href="#linearGradientFAFBFCFFFFCC" id="linearGradientFAFBFCFFFFCC_1010306246" x1="0" y1="292.0" x2="0" y2="352.0" gradientUnits="userSpaceOnUse" xlink:type="simple" xlink:actuate="onLoad" xlink:show="other" /><linearGradient xmlns:xlink="http://www.w3.org/1999/xlink" xlink:href="#linearGradientFAFBFCFFFFCC" id="linearGradientFAFBFCFFFFCC_1319116869" x1="0" y1="180.0" x2="0" y2="240.0" gradientUnits="userSpaceOnUse" xlink:type="simple" xlink:actuate="onLoad" xlink:show="other" /><linearGradient xmlns:xlink="http://www.w3.org/1999/xlink" xlink:href="#linearGradientF8FBFEEDF5FCDEEDFAD4E7F8E2E5E9" id="linearGradientF8FBFEEDF5FCDEEDFAD4E7F8E2E5E9_1758970164" x1="0" y1="20.0" x2="0" y2="126.0" gradientUnits="userSpaceOnUse" xlink:type="simple" xlink:actuate="onLoad" xlink:show="other" /><linearGradient xmlns:xlink="http://www.w3.org/1999/xlink" xlink:href="#linearGradientFAFBFCFFFFCC" id="linearGradientFAFBFCFFFFCC_145884368" x1="0" y1="228.0" x2="0" y2="288.0" gradientUnits="userSpaceOnUse" xlink:type="simple" xlink:actuate="onLoad" xlink:show="other" /><linearGradient xmlns:xlink="http://www.w3.org/1999/xlink" xlink:href="#linearGradientF8FBFEEDF5FCDEEDFAD4E7F8E2E5E9" id="linearGradientF8FBFEEDF5FCDEEDFAD4E7F8E2E5E9_1947232060" x1="0" y1="20.0" x2="0" y2="126.0" gradientUnits="userSpaceOnUse" xlink:type="simple" xlink:actuate="onLoad" xlink:show="other" /></defs></svg>
